{
    "asset" : {
        "generator" : "Khronos glTF Blender I/O v1.8.19",
        "version" : "2.0"
    },
    "extensionsUsed" : [
        "KHR_lights_punctual"
    ],
    "extensionsRequired" : [
        "KHR_lights_punctual"
    ],
    "extensions" : {
        "KHR_lights_punctual" : {
            "lights" : [
                {
                    "color" : [
                        0.6144774556159973,
                        1,
                        0.46959760785102844
                    ],
                    "intensity" : 989,
                    "type" : "point",
                    "name" : "Light"
                },
                {
                    "color" : [
                        0.5373550057411194,
                        0.3761623203754425,
                        1
                    ],
                    "intensity" : 990.5,
                    "type" : "point",
                    "name" : "Light.001"
                },
                {
                    "color" : [
                        1,
                        0.4557991325855255,
                        0.49334511160850525
                    ],
                    "intensity" : 1000,
                    "type" : "point",
                    "name" : "Light.002"
                }
            ]
        }
    },
    "scene" : 0,
    "scenes" : [
        {
            "name" : "Scene",
            "nodes" : [
                0,
                2,
                4,
                6,
                7,
                8
            ]
        }
    ],
    "nodes" : [
        {
            "mesh" : 0,
            "name" : "Chercha",
            "rotation" : [
                0.7071068286895752,
                0,
                0,
                0.7071068286895752
            ],
            "scale" : [
                19.912071228027344,
                19.912071228027344,
                19.912071228027344
            ],
            "translation" : [
                0.1477648764848709,
                1.498326063156128,
                -0.032404590398073196
            ]
        },
        {
            "extensions" : {
                "KHR_lights_punctual" : {
                    "light" : 0
                }
            },
            "name" : "Light_Orientation",
            "rotation" : [
                -0.7071067690849304,
                0,
                0,
                0.7071067690849304
            ]
        },
        {
            "children" : [
                1
            ],
            "name" : "Light",
            "rotation" : [
                0.16907575726509094,
                0.7558803558349609,
                -0.27217137813568115,
                0.570947527885437
            ],
            "translation" : [
                4.076245307922363,
                6.558463096618652,
                -0.44887256622314453
            ]
        },
        {
            "extensions" : {
                "KHR_lights_punctual" : {
                    "light" : 1
                }
            },
            "name" : "Light.001_Orientation",
            "rotation" : [
                -0.7071067690849304,
                0,
                0,
                0.7071067690849304
            ]
        },
        {
            "children" : [
                3
            ],
            "name" : "Light.001",
            "rotation" : [
                0.16907575726509094,
                0.7558803558349609,
                -0.27217137813568115,
                0.570947527885437
            ],
            "scale" : [
                2.8077399730682373,
                2.807739734649658,
                2.8077399730682373
            ],
            "translation" : [
                4.076245307922363,
                5.903861999511719,
                -1.0054539442062378
            ]
        },
        {
            "extensions" : {
                "KHR_lights_punctual" : {
                    "light" : 2
                }
            },
            "name" : "Light.002_Orientation",
            "rotation" : [
                -0.7071067690849304,
                0,
                0,
                0.7071067690849304
            ]
        },
        {
            "children" : [
                5
            ],
            "name" : "Light.002",
            "rotation" : [
                0.16907575726509094,
                0.7558803558349609,
                -0.27217137813568115,
                0.570947527885437
            ],
            "translation" : [
                4.076245307922363,
                6.215392112731934,
                -0.07488155364990234
            ]
        },
        {
            "mesh" : 1,
            "name" : "p-1",
            "scale" : [
                -0.016873188316822052,
                0.5124418139457703,
                0.13180498778820038
            ]
        },
        {
            "name" : "Area.001",
            "rotation" : [
                0.39168885350227356,
                -0.23869948089122772,
                -0.293203204870224,
                0.8388291001319885
            ],
            "translation" : [
                1.0045955181121826,
                2.9530627727508545,
                4.116055965423584
            ]
        }
    ],
    "materials" : [
        {
            "doubleSided" : true,
            "name" : "Material.001",
            "pbrMetallicRoughness" : {
                "baseColorFactor" : [
                    0.17469288408756256,
                    0.19088304042816162,
                    0.20791617035865784,
                    1
                ],
                "metallicFactor" : 0,
                "roughnessFactor" : 0.5
            }
        },
        {
            "doubleSided" : true,
            "name" : "Material.002",
            "pbrMetallicRoughness" : {}
        }
    ],
    "meshes" : [
        {
            "name" : "Uni\u00f3n_10.002",
            "primitives" : [
                {
                    "attributes" : {
                        "POSITION" : 0,
                        "NORMAL" : 1,
                        "TEXCOORD_0" : 2
                    },
                    "indices" : 3,
                    "material" : 0
                }
            ]
        },
        {
            "name" : "Cube.030",
            "primitives" : [
                {
                    "attributes" : {
                        "POSITION" : 4,
                        "NORMAL" : 5,
                        "TEXCOORD_0" : 6
                    },
                    "indices" : 7,
                    "material" : 1
                }
            ]
        }
    ],
    "accessors" : [
        {
            "bufferView" : 0,
            "componentType" : 5126,
            "count" : 5503,
            "max" : [
                0.07040955871343613,
                0.1097520962357521,
                0.07130878418684006
            ],
            "min" : [
                -0.05351957306265831,
                -0.11028379946947098,
                -0.08045405894517899
            ],
            "type" : "VEC3"
        },
        {
            "bufferView" : 1,
            "componentType" : 5126,
            "count" : 5503,
            "type" : "VEC3"
        },
        {
            "bufferView" : 2,
            "componentType" : 5126,
            "count" : 5503,
            "type" : "VEC2"
        },
        {
            "bufferView" : 3,
            "componentType" : 5123,
            "count" : 7872,
            "type" : "SCALAR"
        },
        {
            "bufferView" : 4,
            "componentType" : 5126,
            "count" : 816,
            "max" : [
                -22.7525691986084,
                6.626523971557617,
                16.322507858276367
            ],
            "min" : [
                -24.7525691986084,
                2.6130545139312744,
                -17.89851951599121
            ],
            "type" : "VEC3"
        },
        {
            "bufferView" : 5,
            "componentType" : 5126,
            "count" : 816,
            "type" : "VEC3"
        },
        {
            "bufferView" : 6,
            "componentType" : 5126,
            "count" : 816,
            "type" : "VEC2"
        },
        {
            "bufferView" : 7,
            "componentType" : 5123,
            "count" : 1224,
            "type" : "SCALAR"
        }
    ],
    "bufferViews" : [
        {
            "buffer" : 0,
            "byteLength" : 66036,
            "byteOffset" : 0
        },
        {
            "buffer" : 0,
            "byteLength" : 66036,
            "byteOffset" : 66036
        },
        {
            "buffer" : 0,
            "byteLength" : 44024,
            "byteOffset" : 132072
        },
        {
            "buffer" : 0,
            "byteLength" : 15744,
            "byteOffset" : 176096
        },
        {
            "buffer" : 0,
            "byteLength" : 9792,
            "byteOffset" : 191840
        },
        {
            "buffer" : 0,
            "byteLength" : 9792,
            "byteOffset" : 201632
        },
        {
            "buffer" : 0,
            "byteLength" : 6528,
            "byteOffset" : 211424
        },
        {
            "buffer" : 0,
            "byteLength" : 2448,
            "byteOffset" : 217952
        }
    ],
    "buffers" : [
        {
            "byteLength" : 220400,
            "uri" : "sdeclaraciones.bin"
        }
    ]
}
